# xmcd CD database file
#
# Track frame offsets:
#	150
#	11517
#	23689
#	37265
#	54205
#	66794
#	75388
#	89326
#	98955
#	122574
#	134973
#	146352
#	161521
#	178710
#	191741
#	200393
#	215104
#	247761
#	267604
#
# Disc length: 4052 seconds
#
# Revision: 0
# Processed by: cddbd v1.5.2PL0 Copyright (c) Steve Scherf et al.
# Submitted via: CDex 1.51
#
DISCID=0f0fd213
DTITLE=Ella Fitzgerald - At The Opera House
DYEAR=2009
DGENRE=Jazz
TTITLE0=It's All Right With Me
TTITLE1=Don'cha Go 'Way Mad
TTITLE2=Bewitched, Bothered And Bewildered
TTITLE3=These Foolish Things
TTITLE4=Ill Wind
TTITLE5=Goody Goody
TTITLE6=Moonlight In Vermont
TTITLE7=Them There Eyes
TTITLE8=Stompin' At The Savoy
TTITLE9=It's All Right With Me
TTITLE10=Don'cha Go 'Way Mad
TTITLE11=Bewitched, Bothered And Bewildered
TTITLE12=These Foolish Things
TTITLE13=Ill Wind
TTITLE14=Goody Goody
TTITLE15=Moonlight In Vermont
TTITLE16=Stompin' At The Savoy
TTITLE17=Oh, Lady Be Good
TTITLE18=How High The Moon
EXTD=YEAR: 2009
EXTT0=
EXTT1=
EXTT2=
EXTT3=
EXTT4=
EXTT5=
EXTT6=
EXTT7=
EXTT8=
EXTT9=
EXTT10=
EXTT11=
EXTT12=
EXTT13=
EXTT14=
EXTT15=
EXTT16=
EXTT17=
EXTT18=
PLAYORDER=
